<svg width="285" height="146" xmlns="http://www.w3.org/2000/svg">
 <!-- Created with Method Draw - http://github.com/duopixel/Method-Draw/ -->

 <g>
  <title>background</title>
  <rect fill="#fff" id="canvas_background" height="148" width="287" y="-1" x="-1"/>
  <g display="none" overflow="visible" y="0" x="0" height="100%" width="100%" id="canvasGrid">
   <rect fill="url(#gridpattern)" stroke-width="0" y="0" x="0" height="100%" width="100%"/>
  </g>
 </g>
 <g>
  <title>Layer 1</title>
  <g stroke-width="20" stroke="#000" fill="#cccccc" id="svg_13">
   <g transform="matrix(0.05280467776544473,0,0,0.05280467776544473,0,0) " id="svg_12">
    <title transform="translate(2402.12451171875,0) translate(0,1085.9532470703125) ">Layer 1</title>
    <ellipse fill="#cccccc" cx="2698.62452" cy="1382.45325" id="svg_10" rx="286.5" ry="286.5" stroke="#000" stroke-width="20"/>
    <path fill="#cccccc" stroke="#000" stroke-width="20" opacity="undefined" d="m2533.12451,1216.95325l331,0l0,331l-331,0l0,-331z" id="svg_9" transform="rotate(45 2698.624511718751,1382.4532470703123) "/>
    <path fill="none" stroke="#000" stroke-width="20" opacity="undefined" d="m2458.12161,1534.70468l388.5029,-388.5029" id="svg_8"/>
    <line fill="none" stroke="#000" x1="2546.12161" y1="1619.70468" x2="2934.62451" y2="1231.20179" id="svg_7" stroke-width="20"/>
   </g>
   <rect id="svg_16" height="152.81217" width="294.37436" y="-1.99984" x="-4.84343" stroke-width="0" stroke="#000" fill="#cccccc"/>
   <rect transform="rotate(45 142.50000000000006,72.99999999999999) " rx="4" id="svg_18" height="84.06232" width="84.06232" y="30.96884" x="100.46884" fill-opacity="null" stroke-opacity="null" stroke-width="4" stroke="#000" fill="#cccccc"/>
   <line stroke-linecap="null" stroke-linejoin="null" id="svg_19" y2="1.96393" x2="188.37988" y1="128.62488" x1="61.71893" fill-opacity="null" stroke-opacity="null" stroke-width="4" stroke="#000" fill="none"/>
   <line stroke="#000" stroke-linecap="null" stroke-linejoin="null" id="svg_21" y2="23.64029" x2="212.95341" y1="150.18733" x1="86.40637" fill-opacity="null" stroke-opacity="null" stroke-width="4" fill="none"/>
   <rect stroke="#000" transform="rotate(45 78.43763732910158,136.28109741210938) " id="svg_22" height="37.42092" width="46.8749" y="117.57064" x="55.00019" stroke-width="0" fill="#cccccc"/>
   <rect id="svg_24" height="0.625" width="0" y="86.74997" x="42.34397" stroke-width="0" stroke="#000" fill="#cccccc"/>
   <rect stroke="#000" transform="rotate(45 203.43751525878906,11.28138542175293) " id="svg_26" height="37.42092" width="46.8749" y="-7.42908" x="179.99992" stroke-width="0" fill="#cccccc"/>
  </g>
 </g>
</svg>